<svg xmlns="http://www.w3.org/2000/svg" class="" style="display: block; user-select: none;" viewBox="0 0 586.4 200" width="586.4" height="200"><defs xmlns="http://www.w3.org/1999/xhtml"><style type="text/css">&lt;!--/*--&gt;&lt;![CDATA[/*&gt;&lt;!--*/

  /* from https://fonts.googleapis.com/css2?family=IBM+Plex+Sans&amp;display=swap */
  @font-face {
    font-family: 'IBM Plex Sans';
    font-style: normal;
    font-weight: 400;
    font-display: swap;
    src: url(https://fonts.gstatic.com/s/ibmplexsans/v14/zYXgKVElMYYaJe8bpLHnCwDKhdHeFaxOedc.woff2) format('woff2');
  }
  
  /* from https://fonts.googleapis.com/css2?family=IBM+Plex+Mono&amp;display=swap */
  @font-face {
    font-family: 'IBM Plex Mono';
    font-style: normal;
    font-weight: 400;
    font-display: swap;
    src: url(https://fonts.gstatic.com/s/ibmplexmono/v12/-F63fjptAgt5VM-kVkqdyU8n1i8q131nj-o.woff2) format('woff2');
  }    

/*]]&gt;*/--&gt;</style></defs><rect x="0" y="0" width="586.4" height="200" style="fill: rgb(255, 255, 255);"/><g><g transform="translate(20, 0)"><g><g><text x="38.4" y="36" style="fill: rgb(111, 111, 111); font-family: IBM Plex Mono, monospace; font-weight: 400; text-anchor: end; font-size: 14px;" dy=".3em"><tspan>i[0]</tspan></text><text x="38.4" y="76" style="fill: rgb(111, 111, 111); font-family: IBM Plex Mono, monospace; font-weight: 400; text-anchor: end; font-size: 14px;" dy=".3em"><tspan>i[1]</tspan></text><text x="38.4" y="116" style="fill: rgb(111, 111, 111); font-family: IBM Plex Mono, monospace; font-weight: 400; text-anchor: end; font-size: 14px;" dy=".3em"><tspan>q[0]</tspan></text><text x="38.4" y="156" style="fill: rgb(111, 111, 111); font-family: IBM Plex Mono, monospace; font-weight: 400; text-anchor: end; font-size: 14px;" dy=".3em"><tspan>q[1]</tspan></text></g><g/></g></g><g><g><line x1="68.4" x2="566.4" y1="36" y2="36" style="fill: none; stroke: rgb(224, 224, 224); stroke-width: 1px; stroke-linecap: round;"/><line x1="68.4" x2="566.4" y1="76" y2="76" style="fill: none; stroke: rgb(224, 224, 224); stroke-width: 1px; stroke-linecap: round;"/><line x1="68.4" x2="566.4" y1="116" y2="116" style="fill: none; stroke: rgb(224, 224, 224); stroke-width: 1px; stroke-linecap: round;"/><line x1="68.4" x2="566.4" y1="156" y2="156" style="fill: none; stroke: rgb(224, 224, 224); stroke-width: 1px; stroke-linecap: round;"/></g></g><g transform="translate(92.4, 36)"><g><circle cx="0" cy="0" r="16" style="fill: rgb(0, 45, 156); stroke-width: 0px; stroke: transparent; paint-order: stroke;"/><line x1="0" y1="-8" x2="0" y2="8" style="stroke-width: 1.25px; stroke: rgb(255, 255, 255);"/><line x1="8" y1="0" x2="-8" y2="0" style="stroke-width: 1.25px; stroke: rgb(255, 255, 255);"/></g></g><g transform="translate(92.4, 76)"><g><circle cx="0" cy="0" r="16" style="fill: rgb(0, 45, 156); stroke-width: 0px; stroke: transparent; paint-order: stroke;"/><line x1="0" y1="-8" x2="0" y2="8" style="stroke-width: 1.25px; stroke: rgb(255, 255, 255);"/><line x1="8" y1="0" x2="-8" y2="0" style="stroke-width: 1.25px; stroke: rgb(255, 255, 255);"/></g></g><g transform="translate(124.4, 36)"><line x1="0" y1="-16" x2="0" y2="-2" style="stroke-width: 1px; stroke: rgb(22, 22, 22);"/><line x1="0" y1="2" x2="0" y2="16" style="stroke-width: 1px; stroke: rgb(22, 22, 22);"/></g><g transform="translate(124.4, 76)"><line x1="0" y1="-16" x2="0" y2="-2" style="stroke-width: 1px; stroke: rgb(22, 22, 22);"/><line x1="0" y1="2" x2="0" y2="16" style="stroke-width: 1px; stroke: rgb(22, 22, 22);"/></g><g transform="translate(124.4, 116)"><line x1="0" y1="-16" x2="0" y2="-2" style="stroke-width: 1px; stroke: rgb(22, 22, 22);"/><line x1="0" y1="2" x2="0" y2="16" style="stroke-width: 1px; stroke: rgb(22, 22, 22);"/></g><g transform="translate(124.4, 156)"><line x1="0" y1="-16" x2="0" y2="-2" style="stroke-width: 1px; stroke: rgb(22, 22, 22);"/><line x1="0" y1="2" x2="0" y2="16" style="stroke-width: 1px; stroke: rgb(22, 22, 22);"/></g><g data-testid="phaseDisk-i[0]"><g transform="translate(133.4, 20)"><defs><clipPath id="radix-:raa:"><circle cx="16" cy="16" r="16"/></clipPath></defs><g><circle cx="16" cy="16" r="16" fill="#e8e8e8"/><g clip-path="url(#radix-:raa:)"><rect x="0" y="0" width="32" height="32" fill="#33b1ff"/><rect x="0" y="0" width="32" height="0" fill="#e8e8e8"/></g><circle cx="16" cy="16" r="15.25" fill="none" stroke="#161616" stroke-width="1.5"/><line stroke="#161616" stroke-width="2" x1="16" y1="16" x2="32" y2="16"/></g></g><rect width="32" height="32" y="20" x="133.4" style="fill: transparent;" data-state="closed"/></g><g data-testid="phaseDisk-i[1]"><g transform="translate(133.4, 60)"><defs><clipPath id="radix-:rab:"><circle cx="16" cy="16" r="16"/></clipPath></defs><g><circle cx="16" cy="16" r="16" fill="#e8e8e8"/><g clip-path="url(#radix-:rab:)"><rect x="0" y="0" width="32" height="32" fill="#33b1ff"/><rect x="0" y="0" width="32" height="0" fill="#e8e8e8"/></g><circle cx="16" cy="16" r="15.25" fill="none" stroke="#161616" stroke-width="1.5"/><line stroke="#161616" stroke-width="2" x1="16" y1="16" x2="32" y2="16"/></g></g><rect width="32" height="32" y="60" x="133.4" style="fill: transparent;" data-state="closed"/></g><g data-testid="phaseDisk-q[0]"><g transform="translate(133.4, 100)"><defs><clipPath id="radix-:rac:"><circle cx="16" cy="16" r="16"/></clipPath></defs><g><circle cx="16" cy="16" r="16" fill="#e8e8e8"/><g clip-path="url(#radix-:rac:)"><rect x="0" y="32" width="32" height="0" fill="#33b1ff"/><rect x="0" y="0" width="32" height="32" fill="#e8e8e8"/></g><circle cx="16" cy="16" r="15.25" fill="none" stroke="#161616" stroke-width="1.5"/><line stroke="#161616" stroke-width="2" x1="16" y1="16" x2="32" y2="16"/></g></g><rect width="32" height="32" y="100" x="133.4" style="fill: transparent;" data-state="closed"/></g><g data-testid="phaseDisk-q[1]"><g transform="translate(133.4, 140)"><defs><clipPath id="radix-:rad:"><circle cx="16" cy="16" r="16"/></clipPath></defs><g><circle cx="16" cy="16" r="16" fill="#e8e8e8"/><g clip-path="url(#radix-:rad:)"><rect x="0" y="32" width="32" height="0" fill="#33b1ff"/><rect x="0" y="0" width="32" height="32" fill="#e8e8e8"/></g><circle cx="16" cy="16" r="15.25" fill="none" stroke="#161616" stroke-width="1.5"/><line stroke="#161616" stroke-width="2" x1="16" y1="16" x2="32" y2="16"/></g></g><rect width="32" height="32" y="140" x="133.4" style="fill: transparent;" data-state="closed"/></g><g><rect x="181.4" y="100" width="32" height="32" style="fill: rgb(250, 77, 86); stroke-width: 0px; stroke: transparent; paint-order: stroke;"/><text x="197.4" y="116" style="font-family: IBM Plex Sans, sans-serif; font-size: 16px; font-style: normal; fill: rgb(22, 22, 22); font-weight: 400; text-anchor: middle;" dy=".3em">H</text></g><line x1="237.4" y1="116" x2="237.4" y2="156" style="stroke-width: 1px; stroke: rgb(0, 45, 156);"/><circle r="4" cx="237.4" cy="116" style="fill: rgb(0, 45, 156);"/><g transform="translate(237.4, 156)"><g><circle cx="0" cy="0" r="16" style="fill: rgb(0, 45, 156); stroke-width: 0px; stroke: transparent; paint-order: stroke;"/><line x1="0" y1="-8" x2="0" y2="8" style="stroke-width: 1.25px; stroke: rgb(255, 255, 255);"/><line x1="8" y1="0" x2="-8" y2="0" style="stroke-width: 1.25px; stroke: rgb(255, 255, 255);"/></g></g><g transform="translate(277.4, 36)"><line x1="0" y1="-16" x2="0" y2="-2" style="stroke-width: 1px; stroke: rgb(22, 22, 22);"/><line x1="0" y1="2" x2="0" y2="16" style="stroke-width: 1px; stroke: rgb(22, 22, 22);"/></g><g transform="translate(277.4, 76)"><line x1="0" y1="-16" x2="0" y2="-2" style="stroke-width: 1px; stroke: rgb(22, 22, 22);"/><line x1="0" y1="2" x2="0" y2="16" style="stroke-width: 1px; stroke: rgb(22, 22, 22);"/></g><g transform="translate(277.4, 116)"><line x1="0" y1="-16" x2="0" y2="-2" style="stroke-width: 1px; stroke: rgb(22, 22, 22);"/><line x1="0" y1="2" x2="0" y2="16" style="stroke-width: 1px; stroke: rgb(22, 22, 22);"/></g><g transform="translate(277.4, 156)"><line x1="0" y1="-16" x2="0" y2="-2" style="stroke-width: 1px; stroke: rgb(22, 22, 22);"/><line x1="0" y1="2" x2="0" y2="16" style="stroke-width: 1px; stroke: rgb(22, 22, 22);"/></g><line x1="317.4" y1="76" x2="317.4" y2="116" style="stroke-width: 1px; stroke: rgb(0, 45, 156);"/><circle r="4" cx="317.4" cy="76" style="fill: rgb(0, 45, 156);"/><g transform="translate(317.4, 116)"><g><circle cx="0" cy="0" r="16" style="fill: rgb(0, 45, 156); stroke-width: 0px; stroke: transparent; paint-order: stroke;"/><line x1="0" y1="-8" x2="0" y2="8" style="stroke-width: 1.25px; stroke: rgb(255, 255, 255);"/><line x1="8" y1="0" x2="-8" y2="0" style="stroke-width: 1.25px; stroke: rgb(255, 255, 255);"/></g></g><g transform="translate(357.4, 0)"><line x1="0" y1="36" x2="0" y2="116" style="stroke-width: 1px; stroke: rgb(159, 24, 83);"/><circle r="4" style="fill: rgb(159, 24, 83);" cx="0" cy="36"/><circle r="4" style="fill: rgb(159, 24, 83);" cx="0" cy="116"/></g><g transform="translate(397.4, 36)"><line x1="0" y1="-16" x2="0" y2="-2" style="stroke-width: 1px; stroke: rgb(22, 22, 22);"/><line x1="0" y1="2" x2="0" y2="16" style="stroke-width: 1px; stroke: rgb(22, 22, 22);"/></g><g transform="translate(397.4, 76)"><line x1="0" y1="-16" x2="0" y2="-2" style="stroke-width: 1px; stroke: rgb(22, 22, 22);"/><line x1="0" y1="2" x2="0" y2="16" style="stroke-width: 1px; stroke: rgb(22, 22, 22);"/></g><g transform="translate(397.4, 116)"><line x1="0" y1="-16" x2="0" y2="-2" style="stroke-width: 1px; stroke: rgb(22, 22, 22);"/><line x1="0" y1="2" x2="0" y2="16" style="stroke-width: 1px; stroke: rgb(22, 22, 22);"/></g><g transform="translate(397.4, 156)"><line x1="0" y1="-16" x2="0" y2="-2" style="stroke-width: 1px; stroke: rgb(22, 22, 22);"/><line x1="0" y1="2" x2="0" y2="16" style="stroke-width: 1px; stroke: rgb(22, 22, 22);"/></g><line x1="437.4" y1="116" x2="437.4" y2="156" style="stroke-width: 1px; stroke: rgb(0, 45, 156);"/><circle r="4" cx="437.4" cy="116" style="fill: rgb(0, 45, 156);"/><g transform="translate(437.4, 156)"><g><circle cx="0" cy="0" r="16" style="fill: rgb(0, 45, 156); stroke-width: 0px; stroke: transparent; paint-order: stroke;"/><line x1="0" y1="-8" x2="0" y2="8" style="stroke-width: 1.25px; stroke: rgb(255, 255, 255);"/><line x1="8" y1="0" x2="-8" y2="0" style="stroke-width: 1.25px; stroke: rgb(255, 255, 255);"/></g></g><g><rect x="461.4" y="100" width="32" height="32" style="fill: rgb(250, 77, 86); stroke-width: 0px; stroke: transparent; paint-order: stroke;"/><text x="477.4" y="116" style="font-family: IBM Plex Sans, sans-serif; font-size: 16px; font-style: normal; fill: rgb(22, 22, 22); font-weight: 400; text-anchor: middle;" dy=".3em">H</text></g><g transform="translate(509.4, 36)"><line x1="0" y1="-16" x2="0" y2="-2" style="stroke-width: 1px; stroke: rgb(22, 22, 22);"/><line x1="0" y1="2" x2="0" y2="16" style="stroke-width: 1px; stroke: rgb(22, 22, 22);"/></g><g transform="translate(509.4, 76)"><line x1="0" y1="-16" x2="0" y2="-2" style="stroke-width: 1px; stroke: rgb(22, 22, 22);"/><line x1="0" y1="2" x2="0" y2="16" style="stroke-width: 1px; stroke: rgb(22, 22, 22);"/></g><g transform="translate(509.4, 116)"><line x1="0" y1="-16" x2="0" y2="-2" style="stroke-width: 1px; stroke: rgb(22, 22, 22);"/><line x1="0" y1="2" x2="0" y2="16" style="stroke-width: 1px; stroke: rgb(22, 22, 22);"/></g><g transform="translate(509.4, 156)"><line x1="0" y1="-16" x2="0" y2="-2" style="stroke-width: 1px; stroke: rgb(22, 22, 22);"/><line x1="0" y1="2" x2="0" y2="16" style="stroke-width: 1px; stroke: rgb(22, 22, 22);"/></g><g data-testid="phaseDisk-i[0]"><g transform="translate(518.4, 20)"><defs><clipPath id="radix-:rae:"><circle cx="16" cy="16" r="16"/></clipPath></defs><g><circle cx="16" cy="16" r="16" fill="#e8e8e8"/><g clip-path="url(#radix-:rae:)"><rect x="0" y="0" width="32" height="32" fill="#33b1ff"/><rect x="0" y="0" width="32" height="0" fill="#e8e8e8"/></g><circle cx="16" cy="16" r="15.25" fill="none" stroke="#161616" stroke-width="1.5"/><line stroke="#161616" stroke-width="2" x1="16" y1="16" x2="32" y2="16"/></g></g><rect width="32" height="32" y="20" x="518.4" style="fill: transparent;" data-state="closed"/></g><g data-testid="phaseDisk-i[1]"><g transform="translate(518.4, 60)"><defs><clipPath id="radix-:raf:"><circle cx="16" cy="16" r="16"/></clipPath></defs><g><circle cx="16" cy="16" r="16" fill="#e8e8e8"/><g clip-path="url(#radix-:raf:)"><rect x="0" y="0" width="32" height="32" fill="#33b1ff"/><rect x="0" y="0" width="32" height="0" fill="#e8e8e8"/></g><circle cx="16" cy="16" r="15.25" fill="none" stroke="#161616" stroke-width="1.5"/><line stroke="#161616" stroke-width="2" x1="16" y1="16" x2="32" y2="16"/></g></g><rect width="32" height="32" y="60" x="518.4" style="fill: transparent;" data-state="closed"/></g><g data-testid="phaseDisk-q[0]"><g transform="translate(518.4, 100)"><defs><clipPath id="radix-:rag:"><circle cx="16" cy="16" r="16"/></clipPath></defs><g><circle cx="16" cy="16" r="16" fill="#e8e8e8"/><g clip-path="url(#radix-:rag:)"><rect x="0" y="0" width="32" height="32" fill="#33b1ff"/><rect x="0" y="0" width="32" height="0" fill="#e8e8e8"/></g><circle cx="16" cy="16" r="15.25" fill="none" stroke="#161616" stroke-width="1.5"/><line stroke="#161616" stroke-width="2" x1="16" y1="16" x2="6.039613253960852e-14" y2="16.00000139876448"/></g></g><rect width="32" height="32" y="100" x="518.4" style="fill: transparent;" data-state="closed"/></g><g data-testid="phaseDisk-q[1]"><g transform="translate(518.4, 140)"><defs><clipPath id="radix-:rah:"><circle cx="16" cy="16" r="16"/></clipPath></defs><g><circle cx="16" cy="16" r="16" fill="#e8e8e8"/><g clip-path="url(#radix-:rah:)"><rect x="0" y="0" width="32" height="32" fill="#33b1ff"/><rect x="0" y="0" width="32" height="0" fill="#e8e8e8"/></g><circle cx="16" cy="16" r="15.25" fill="none" stroke="#161616" stroke-width="1.5"/><line stroke="#161616" stroke-width="2" x1="16" y1="16" x2="32" y2="16"/></g></g><rect width="32" height="32" y="140" x="518.4" style="fill: transparent;" data-state="closed"/></g></g></svg>