<svg xmlns="http://www.w3.org/2000/svg" class="" style="display: block; user-select: none;" viewBox="0 0 556 280" width="556" height="280"><defs xmlns="http://www.w3.org/1999/xhtml"><style type="text/css">&lt;!--/*--&gt;&lt;![CDATA[/*&gt;&lt;!--*/

  /* from https://fonts.googleapis.com/css2?family=IBM+Plex+Sans&amp;display=swap */
  @font-face {
    font-family: 'IBM Plex Sans';
    font-style: normal;
    font-weight: 400;
    font-display: swap;
    src: url(https://fonts.gstatic.com/s/ibmplexsans/v14/zYXgKVElMYYaJe8bpLHnCwDKhdHeFaxOedc.woff2) format('woff2');
  }
  
  /* from https://fonts.googleapis.com/css2?family=IBM+Plex+Mono&amp;display=swap */
  @font-face {
    font-family: 'IBM Plex Mono';
    font-style: normal;
    font-weight: 400;
    font-display: swap;
    src: url(https://fonts.gstatic.com/s/ibmplexmono/v12/-F63fjptAgt5VM-kVkqdyU8n1i8q131nj-o.woff2) format('woff2');
  }    

/*]]&gt;*/--&gt;</style></defs><rect x="0" y="0" width="556" height="280" style="fill: rgb(255, 255, 255);"/><g><g transform="translate(20, 0)"><g><g><text x="48" y="36" style="fill: rgb(111, 111, 111); font-family: IBM Plex Mono, monospace; font-weight: 400; text-anchor: end; font-size: 14px;" dy=".3em"><tspan>x_[0]</tspan></text><text x="48" y="76" style="fill: rgb(111, 111, 111); font-family: IBM Plex Mono, monospace; font-weight: 400; text-anchor: end; font-size: 14px;" dy=".3em"><tspan>x_[1]</tspan></text><text x="48" y="116" style="fill: rgb(111, 111, 111); font-family: IBM Plex Mono, monospace; font-weight: 400; text-anchor: end; font-size: 14px;" dy=".3em"><tspan>x_[2]</tspan></text><text x="48" y="156" style="fill: rgb(111, 111, 111); font-family: IBM Plex Mono, monospace; font-weight: 400; text-anchor: end; font-size: 14px;" dy=".3em"><tspan>x_[3]</tspan></text><text x="48" y="196" style="fill: rgb(111, 111, 111); font-family: IBM Plex Mono, monospace; font-weight: 400; text-anchor: end; font-size: 14px;" dy=".3em"><tspan>x_[4]</tspan></text><text x="48" y="236" style="fill: rgb(111, 111, 111); font-family: IBM Plex Mono, monospace; font-weight: 400; text-anchor: end; font-size: 14px;" dy=".3em"><tspan>y_[0]</tspan></text></g><g/></g></g><g><g><line x1="78" x2="536" y1="36" y2="36" style="fill: none; stroke: rgb(224, 224, 224); stroke-width: 1px; stroke-linecap: round;"/><line x1="78" x2="536" y1="76" y2="76" style="fill: none; stroke: rgb(224, 224, 224); stroke-width: 1px; stroke-linecap: round;"/><line x1="78" x2="536" y1="116" y2="116" style="fill: none; stroke: rgb(224, 224, 224); stroke-width: 1px; stroke-linecap: round;"/><line x1="78" x2="536" y1="156" y2="156" style="fill: none; stroke: rgb(224, 224, 224); stroke-width: 1px; stroke-linecap: round;"/><line x1="78" x2="536" y1="196" y2="196" style="fill: none; stroke: rgb(224, 224, 224); stroke-width: 1px; stroke-linecap: round;"/><line x1="78" x2="536" y1="236" y2="236" style="fill: none; stroke: rgb(224, 224, 224); stroke-width: 1px; stroke-linecap: round;"/></g></g><g transform="translate(102, 236)"><g><circle cx="0" cy="0" r="16" style="fill: rgb(0, 45, 156); stroke-width: 0px; stroke: transparent; paint-order: stroke;"/><line x1="0" y1="-8" x2="0" y2="8" style="stroke-width: 1.25px; stroke: rgb(255, 255, 255);"/><line x1="8" y1="0" x2="-8" y2="0" style="stroke-width: 1.25px; stroke: rgb(255, 255, 255);"/></g></g><g transform="translate(134, 36)"><line x1="0" y1="-16" x2="0" y2="-2" style="stroke-width: 1px; stroke: rgb(22, 22, 22);"/><line x1="0" y1="2" x2="0" y2="16" style="stroke-width: 1px; stroke: rgb(22, 22, 22);"/></g><g transform="translate(134, 76)"><line x1="0" y1="-16" x2="0" y2="-2" style="stroke-width: 1px; stroke: rgb(22, 22, 22);"/><line x1="0" y1="2" x2="0" y2="16" style="stroke-width: 1px; stroke: rgb(22, 22, 22);"/></g><g transform="translate(134, 116)"><line x1="0" y1="-16" x2="0" y2="-2" style="stroke-width: 1px; stroke: rgb(22, 22, 22);"/><line x1="0" y1="2" x2="0" y2="16" style="stroke-width: 1px; stroke: rgb(22, 22, 22);"/></g><g transform="translate(134, 156)"><line x1="0" y1="-16" x2="0" y2="-2" style="stroke-width: 1px; stroke: rgb(22, 22, 22);"/><line x1="0" y1="2" x2="0" y2="16" style="stroke-width: 1px; stroke: rgb(22, 22, 22);"/></g><g transform="translate(134, 196)"><line x1="0" y1="-16" x2="0" y2="-2" style="stroke-width: 1px; stroke: rgb(22, 22, 22);"/><line x1="0" y1="2" x2="0" y2="16" style="stroke-width: 1px; stroke: rgb(22, 22, 22);"/></g><g transform="translate(134, 236)"><line x1="0" y1="-16" x2="0" y2="-2" style="stroke-width: 1px; stroke: rgb(22, 22, 22);"/><line x1="0" y1="2" x2="0" y2="16" style="stroke-width: 1px; stroke: rgb(22, 22, 22);"/></g><g data-testid="phaseDisk-x_[0]"><g transform="translate(143, 20)"><defs><clipPath id="radix-:r2gv:"><circle cx="16" cy="16" r="16"/></clipPath></defs><g><circle cx="16" cy="16" r="16" fill="#e8e8e8"/><g clip-path="url(#radix-:r2gv:)"><rect x="0" y="32" width="32" height="0" fill="#33b1ff"/><rect x="0" y="0" width="32" height="32" fill="#e8e8e8"/></g><circle cx="16" cy="16" r="15.25" fill="none" stroke="#161616" stroke-width="1.5"/><line stroke="#161616" stroke-width="2" x1="16" y1="16" x2="32" y2="16"/></g></g><rect width="32" height="32" y="20" x="143" style="fill: transparent;" data-state="closed"/></g><g data-testid="phaseDisk-x_[1]"><g transform="translate(143, 60)"><defs><clipPath id="radix-:r2h0:"><circle cx="16" cy="16" r="16"/></clipPath></defs><g><circle cx="16" cy="16" r="16" fill="#e8e8e8"/><g clip-path="url(#radix-:r2h0:)"><rect x="0" y="32" width="32" height="0" fill="#33b1ff"/><rect x="0" y="0" width="32" height="32" fill="#e8e8e8"/></g><circle cx="16" cy="16" r="15.25" fill="none" stroke="#161616" stroke-width="1.5"/><line stroke="#161616" stroke-width="2" x1="16" y1="16" x2="32" y2="16"/></g></g><rect width="32" height="32" y="60" x="143" style="fill: transparent;" data-state="closed"/></g><g data-testid="phaseDisk-x_[2]"><g transform="translate(143, 100)"><defs><clipPath id="radix-:r2h1:"><circle cx="16" cy="16" r="16"/></clipPath></defs><g><circle cx="16" cy="16" r="16" fill="#e8e8e8"/><g clip-path="url(#radix-:r2h1:)"><rect x="0" y="32" width="32" height="0" fill="#33b1ff"/><rect x="0" y="0" width="32" height="32" fill="#e8e8e8"/></g><circle cx="16" cy="16" r="15.25" fill="none" stroke="#161616" stroke-width="1.5"/><line stroke="#161616" stroke-width="2" x1="16" y1="16" x2="32" y2="16"/></g></g><rect width="32" height="32" y="100" x="143" style="fill: transparent;" data-state="closed"/></g><g data-testid="phaseDisk-x_[3]"><g transform="translate(143, 140)"><defs><clipPath id="radix-:r2h2:"><circle cx="16" cy="16" r="16"/></clipPath></defs><g><circle cx="16" cy="16" r="16" fill="#e8e8e8"/><g clip-path="url(#radix-:r2h2:)"><rect x="0" y="32" width="32" height="0" fill="#33b1ff"/><rect x="0" y="0" width="32" height="32" fill="#e8e8e8"/></g><circle cx="16" cy="16" r="15.25" fill="none" stroke="#161616" stroke-width="1.5"/><line stroke="#161616" stroke-width="2" x1="16" y1="16" x2="32" y2="16"/></g></g><rect width="32" height="32" y="140" x="143" style="fill: transparent;" data-state="closed"/></g><g data-testid="phaseDisk-x_[4]"><g transform="translate(143, 180)"><defs><clipPath id="radix-:r2h3:"><circle cx="16" cy="16" r="16"/></clipPath></defs><g><circle cx="16" cy="16" r="16" fill="#e8e8e8"/><g clip-path="url(#radix-:r2h3:)"><rect x="0" y="32" width="32" height="0" fill="#33b1ff"/><rect x="0" y="0" width="32" height="32" fill="#e8e8e8"/></g><circle cx="16" cy="16" r="15.25" fill="none" stroke="#161616" stroke-width="1.5"/><line stroke="#161616" stroke-width="2" x1="16" y1="16" x2="32" y2="16"/></g></g><rect width="32" height="32" y="180" x="143" style="fill: transparent;" data-state="closed"/></g><g data-testid="phaseDisk-y_[0]"><g transform="translate(143, 220)"><defs><clipPath id="radix-:r2h4:"><circle cx="16" cy="16" r="16"/></clipPath></defs><g><circle cx="16" cy="16" r="16" fill="#e8e8e8"/><g clip-path="url(#radix-:r2h4:)"><rect x="0" y="0" width="32" height="32" fill="#33b1ff"/><rect x="0" y="0" width="32" height="0" fill="#e8e8e8"/></g><circle cx="16" cy="16" r="15.25" fill="none" stroke="#161616" stroke-width="1.5"/><line stroke="#161616" stroke-width="2" x1="16" y1="16" x2="32" y2="16"/></g></g><rect width="32" height="32" y="220" x="143" style="fill: transparent;" data-state="closed"/></g><g><rect x="191" y="20" width="32" height="32" style="fill: rgb(250, 77, 86); stroke-width: 0px; stroke: transparent; paint-order: stroke;"/><text x="207" y="36" style="font-family: IBM Plex Sans, sans-serif; font-size: 16px; font-style: normal; fill: rgb(22, 22, 22); font-weight: 400; text-anchor: middle;" dy=".3em">H</text></g><g><rect x="191" y="60" width="32" height="32" style="fill: rgb(250, 77, 86); stroke-width: 0px; stroke: transparent; paint-order: stroke;"/><text x="207" y="76" style="font-family: IBM Plex Sans, sans-serif; font-size: 16px; font-style: normal; fill: rgb(22, 22, 22); font-weight: 400; text-anchor: middle;" dy=".3em">H</text></g><g><rect x="191" y="100" width="32" height="32" style="fill: rgb(250, 77, 86); stroke-width: 0px; stroke: transparent; paint-order: stroke;"/><text x="207" y="116" style="font-family: IBM Plex Sans, sans-serif; font-size: 16px; font-style: normal; fill: rgb(22, 22, 22); font-weight: 400; text-anchor: middle;" dy=".3em">H</text></g><g><rect x="191" y="140" width="32" height="32" style="fill: rgb(250, 77, 86); stroke-width: 0px; stroke: transparent; paint-order: stroke;"/><text x="207" y="156" style="font-family: IBM Plex Sans, sans-serif; font-size: 16px; font-style: normal; fill: rgb(22, 22, 22); font-weight: 400; text-anchor: middle;" dy=".3em">H</text></g><g><rect x="191" y="180" width="32" height="32" style="fill: rgb(250, 77, 86); stroke-width: 0px; stroke: transparent; paint-order: stroke;"/><text x="207" y="196" style="font-family: IBM Plex Sans, sans-serif; font-size: 16px; font-style: normal; fill: rgb(22, 22, 22); font-weight: 400; text-anchor: middle;" dy=".3em">H</text></g><g><rect x="191" y="220" width="32" height="32" style="fill: rgb(250, 77, 86); stroke-width: 0px; stroke: transparent; paint-order: stroke;"/><text x="207" y="236" style="font-family: IBM Plex Sans, sans-serif; font-size: 16px; font-style: normal; fill: rgb(22, 22, 22); font-weight: 400; text-anchor: middle;" dy=".3em">H</text></g><g transform="translate(247, 36)"><line x1="0" y1="-16" x2="0" y2="-2" style="stroke-width: 1px; stroke: rgb(22, 22, 22);"/><line x1="0" y1="2" x2="0" y2="16" style="stroke-width: 1px; stroke: rgb(22, 22, 22);"/></g><g transform="translate(247, 76)"><line x1="0" y1="-16" x2="0" y2="-2" style="stroke-width: 1px; stroke: rgb(22, 22, 22);"/><line x1="0" y1="2" x2="0" y2="16" style="stroke-width: 1px; stroke: rgb(22, 22, 22);"/></g><g transform="translate(247, 116)"><line x1="0" y1="-16" x2="0" y2="-2" style="stroke-width: 1px; stroke: rgb(22, 22, 22);"/><line x1="0" y1="2" x2="0" y2="16" style="stroke-width: 1px; stroke: rgb(22, 22, 22);"/></g><g transform="translate(247, 156)"><line x1="0" y1="-16" x2="0" y2="-2" style="stroke-width: 1px; stroke: rgb(22, 22, 22);"/><line x1="0" y1="2" x2="0" y2="16" style="stroke-width: 1px; stroke: rgb(22, 22, 22);"/></g><g transform="translate(247, 196)"><line x1="0" y1="-16" x2="0" y2="-2" style="stroke-width: 1px; stroke: rgb(22, 22, 22);"/><line x1="0" y1="2" x2="0" y2="16" style="stroke-width: 1px; stroke: rgb(22, 22, 22);"/></g><g transform="translate(247, 236)"><line x1="0" y1="-16" x2="0" y2="-2" style="stroke-width: 1px; stroke: rgb(22, 22, 22);"/><line x1="0" y1="2" x2="0" y2="16" style="stroke-width: 1px; stroke: rgb(22, 22, 22);"/></g><line x1="287" y1="36" x2="287" y2="236" style="stroke-width: 1px; stroke: rgb(0, 45, 156);"/><circle r="4" cx="287" cy="36" style="fill: rgb(0, 45, 156);"/><g transform="translate(287, 236)"><g><circle cx="0" cy="0" r="16" style="fill: rgb(0, 45, 156); stroke-width: 0px; stroke: transparent; paint-order: stroke;"/><line x1="0" y1="-8" x2="0" y2="8" style="stroke-width: 1.25px; stroke: rgb(255, 255, 255);"/><line x1="8" y1="0" x2="-8" y2="0" style="stroke-width: 1.25px; stroke: rgb(255, 255, 255);"/></g></g><line x1="327" y1="76" x2="327" y2="236" style="stroke-width: 1px; stroke: rgb(0, 45, 156);"/><circle r="4" cx="327" cy="76" style="fill: rgb(0, 45, 156);"/><g transform="translate(327, 236)"><g><circle cx="0" cy="0" r="16" style="fill: rgb(0, 45, 156); stroke-width: 0px; stroke: transparent; paint-order: stroke;"/><line x1="0" y1="-8" x2="0" y2="8" style="stroke-width: 1.25px; stroke: rgb(255, 255, 255);"/><line x1="8" y1="0" x2="-8" y2="0" style="stroke-width: 1.25px; stroke: rgb(255, 255, 255);"/></g></g><line x1="367" y1="116" x2="367" y2="236" style="stroke-width: 1px; stroke: rgb(0, 45, 156);"/><circle r="4" cx="367" cy="116" style="fill: rgb(0, 45, 156);"/><g transform="translate(367, 236)"><g><circle cx="0" cy="0" r="16" style="fill: rgb(0, 45, 156); stroke-width: 0px; stroke: transparent; paint-order: stroke;"/><line x1="0" y1="-8" x2="0" y2="8" style="stroke-width: 1.25px; stroke: rgb(255, 255, 255);"/><line x1="8" y1="0" x2="-8" y2="0" style="stroke-width: 1.25px; stroke: rgb(255, 255, 255);"/></g></g><g transform="translate(407, 36)"><line x1="0" y1="-16" x2="0" y2="-2" style="stroke-width: 1px; stroke: rgb(22, 22, 22);"/><line x1="0" y1="2" x2="0" y2="16" style="stroke-width: 1px; stroke: rgb(22, 22, 22);"/></g><g transform="translate(407, 76)"><line x1="0" y1="-16" x2="0" y2="-2" style="stroke-width: 1px; stroke: rgb(22, 22, 22);"/><line x1="0" y1="2" x2="0" y2="16" style="stroke-width: 1px; stroke: rgb(22, 22, 22);"/></g><g transform="translate(407, 116)"><line x1="0" y1="-16" x2="0" y2="-2" style="stroke-width: 1px; stroke: rgb(22, 22, 22);"/><line x1="0" y1="2" x2="0" y2="16" style="stroke-width: 1px; stroke: rgb(22, 22, 22);"/></g><g transform="translate(407, 156)"><line x1="0" y1="-16" x2="0" y2="-2" style="stroke-width: 1px; stroke: rgb(22, 22, 22);"/><line x1="0" y1="2" x2="0" y2="16" style="stroke-width: 1px; stroke: rgb(22, 22, 22);"/></g><g transform="translate(407, 196)"><line x1="0" y1="-16" x2="0" y2="-2" style="stroke-width: 1px; stroke: rgb(22, 22, 22);"/><line x1="0" y1="2" x2="0" y2="16" style="stroke-width: 1px; stroke: rgb(22, 22, 22);"/></g><g transform="translate(407, 236)"><line x1="0" y1="-16" x2="0" y2="-2" style="stroke-width: 1px; stroke: rgb(22, 22, 22);"/><line x1="0" y1="2" x2="0" y2="16" style="stroke-width: 1px; stroke: rgb(22, 22, 22);"/></g><g><rect x="431" y="20" width="32" height="32" style="fill: rgb(250, 77, 86); stroke-width: 0px; stroke: transparent; paint-order: stroke;"/><text x="447" y="36" style="font-family: IBM Plex Sans, sans-serif; font-size: 16px; font-style: normal; fill: rgb(22, 22, 22); font-weight: 400; text-anchor: middle;" dy=".3em">H</text></g><g><rect x="431" y="60" width="32" height="32" style="fill: rgb(250, 77, 86); stroke-width: 0px; stroke: transparent; paint-order: stroke;"/><text x="447" y="76" style="font-family: IBM Plex Sans, sans-serif; font-size: 16px; font-style: normal; fill: rgb(22, 22, 22); font-weight: 400; text-anchor: middle;" dy=".3em">H</text></g><g><rect x="431" y="100" width="32" height="32" style="fill: rgb(250, 77, 86); stroke-width: 0px; stroke: transparent; paint-order: stroke;"/><text x="447" y="116" style="font-family: IBM Plex Sans, sans-serif; font-size: 16px; font-style: normal; fill: rgb(22, 22, 22); font-weight: 400; text-anchor: middle;" dy=".3em">H</text></g><g><rect x="431" y="140" width="32" height="32" style="fill: rgb(250, 77, 86); stroke-width: 0px; stroke: transparent; paint-order: stroke;"/><text x="447" y="156" style="font-family: IBM Plex Sans, sans-serif; font-size: 16px; font-style: normal; fill: rgb(22, 22, 22); font-weight: 400; text-anchor: middle;" dy=".3em">H</text></g><g><rect x="431" y="180" width="32" height="32" style="fill: rgb(250, 77, 86); stroke-width: 0px; stroke: transparent; paint-order: stroke;"/><text x="447" y="196" style="font-family: IBM Plex Sans, sans-serif; font-size: 16px; font-style: normal; fill: rgb(22, 22, 22); font-weight: 400; text-anchor: middle;" dy=".3em">H</text></g><g><rect x="431" y="220" width="32" height="32" style="fill: rgb(250, 77, 86); stroke-width: 0px; stroke: transparent; paint-order: stroke;"/><text x="447" y="236" style="font-family: IBM Plex Sans, sans-serif; font-size: 16px; font-style: normal; fill: rgb(22, 22, 22); font-weight: 400; text-anchor: middle;" dy=".3em">H</text></g><g transform="translate(479, 36)"><line x1="0" y1="-16" x2="0" y2="-2" style="stroke-width: 1px; stroke: rgb(22, 22, 22);"/><line x1="0" y1="2" x2="0" y2="16" style="stroke-width: 1px; stroke: rgb(22, 22, 22);"/></g><g transform="translate(479, 76)"><line x1="0" y1="-16" x2="0" y2="-2" style="stroke-width: 1px; stroke: rgb(22, 22, 22);"/><line x1="0" y1="2" x2="0" y2="16" style="stroke-width: 1px; stroke: rgb(22, 22, 22);"/></g><g transform="translate(479, 116)"><line x1="0" y1="-16" x2="0" y2="-2" style="stroke-width: 1px; stroke: rgb(22, 22, 22);"/><line x1="0" y1="2" x2="0" y2="16" style="stroke-width: 1px; stroke: rgb(22, 22, 22);"/></g><g transform="translate(479, 156)"><line x1="0" y1="-16" x2="0" y2="-2" style="stroke-width: 1px; stroke: rgb(22, 22, 22);"/><line x1="0" y1="2" x2="0" y2="16" style="stroke-width: 1px; stroke: rgb(22, 22, 22);"/></g><g transform="translate(479, 196)"><line x1="0" y1="-16" x2="0" y2="-2" style="stroke-width: 1px; stroke: rgb(22, 22, 22);"/><line x1="0" y1="2" x2="0" y2="16" style="stroke-width: 1px; stroke: rgb(22, 22, 22);"/></g><g transform="translate(479, 236)"><line x1="0" y1="-16" x2="0" y2="-2" style="stroke-width: 1px; stroke: rgb(22, 22, 22);"/><line x1="0" y1="2" x2="0" y2="16" style="stroke-width: 1px; stroke: rgb(22, 22, 22);"/></g><g data-testid="phaseDisk-x_[0]"><g transform="translate(488, 20)"><defs><clipPath id="radix-:r2h5:"><circle cx="16" cy="16" r="16"/></clipPath></defs><g><circle cx="16" cy="16" r="16" fill="#e8e8e8"/><g clip-path="url(#radix-:r2h5:)"><rect x="0" y="0" width="32" height="32" fill="#33b1ff"/><rect x="0" y="0" width="32" height="0" fill="#e8e8e8"/></g><circle cx="16" cy="16" r="15.25" fill="none" stroke="#161616" stroke-width="1.5"/><line stroke="#161616" stroke-width="2" x1="16" y1="16" x2="32" y2="16"/></g></g><rect width="32" height="32" y="20" x="488" style="fill: transparent;" data-state="closed"/></g><g data-testid="phaseDisk-x_[1]"><g transform="translate(488, 60)"><defs><clipPath id="radix-:r2h6:"><circle cx="16" cy="16" r="16"/></clipPath></defs><g><circle cx="16" cy="16" r="16" fill="#e8e8e8"/><g clip-path="url(#radix-:r2h6:)"><rect x="0" y="0" width="32" height="32" fill="#33b1ff"/><rect x="0" y="0" width="32" height="0" fill="#e8e8e8"/></g><circle cx="16" cy="16" r="15.25" fill="none" stroke="#161616" stroke-width="1.5"/><line stroke="#161616" stroke-width="2" x1="16" y1="16" x2="32" y2="16"/></g></g><rect width="32" height="32" y="60" x="488" style="fill: transparent;" data-state="closed"/></g><g data-testid="phaseDisk-x_[2]"><g transform="translate(488, 100)"><defs><clipPath id="radix-:r2h7:"><circle cx="16" cy="16" r="16"/></clipPath></defs><g><circle cx="16" cy="16" r="16" fill="#e8e8e8"/><g clip-path="url(#radix-:r2h7:)"><rect x="0" y="0" width="32" height="32" fill="#33b1ff"/><rect x="0" y="0" width="32" height="0" fill="#e8e8e8"/></g><circle cx="16" cy="16" r="15.25" fill="none" stroke="#161616" stroke-width="1.5"/><line stroke="#161616" stroke-width="2" x1="16" y1="16" x2="32" y2="16"/></g></g><rect width="32" height="32" y="100" x="488" style="fill: transparent;" data-state="closed"/></g><g data-testid="phaseDisk-x_[3]"><g transform="translate(488, 140)"><defs><clipPath id="radix-:r2h8:"><circle cx="16" cy="16" r="16"/></clipPath></defs><g><circle cx="16" cy="16" r="16" fill="#e8e8e8"/><g clip-path="url(#radix-:r2h8:)"><rect x="0" y="32" width="32" height="0" fill="#33b1ff"/><rect x="0" y="0" width="32" height="32" fill="#e8e8e8"/></g><circle cx="16" cy="16" r="15.25" fill="none" stroke="#161616" stroke-width="1.5"/><line stroke="#161616" stroke-width="2" x1="16" y1="16" x2="6.039613253960852e-14" y2="16.00000139876448"/></g></g><rect width="32" height="32" y="140" x="488" style="fill: transparent;" data-state="closed"/></g><g data-testid="phaseDisk-x_[4]"><g transform="translate(488, 180)"><defs><clipPath id="radix-:r2h9:"><circle cx="16" cy="16" r="16"/></clipPath></defs><g><circle cx="16" cy="16" r="16" fill="#e8e8e8"/><g clip-path="url(#radix-:r2h9:)"><rect x="0" y="32" width="32" height="0" fill="#33b1ff"/><rect x="0" y="0" width="32" height="32" fill="#e8e8e8"/></g><circle cx="16" cy="16" r="15.25" fill="none" stroke="#161616" stroke-width="1.5"/><line stroke="#161616" stroke-width="2" x1="16" y1="16" x2="6.039613253960852e-14" y2="16.00000139876448"/></g></g><rect width="32" height="32" y="180" x="488" style="fill: transparent;" data-state="closed"/></g><g data-testid="phaseDisk-y_[0]"><g transform="translate(488, 220)"><defs><clipPath id="radix-:r2ha:"><circle cx="16" cy="16" r="16"/></clipPath></defs><g><circle cx="16" cy="16" r="16" fill="#e8e8e8"/><g clip-path="url(#radix-:r2ha:)"><rect x="0" y="0" width="32" height="32" fill="#33b1ff"/><rect x="0" y="0" width="32" height="0" fill="#e8e8e8"/></g><circle cx="16" cy="16" r="15.25" fill="none" stroke="#161616" stroke-width="1.5"/><line stroke="#161616" stroke-width="2" x1="16" y1="16" x2="32" y2="16"/></g></g><rect width="32" height="32" y="220" x="488" style="fill: transparent;" data-state="closed"/></g></g></svg>